<?xml version="1.0" encoding="utf-8"?><svg xmlns="http://www.w3.org/2000/svg" xmlns:xlink="http://www.w3.org/1999/xlink" version="1.1" width="1026px" height="962px" viewBox="0 0 1026 962"><style>rect,path{fill:#fff}</style><path d="M297.8,851.7h23.5c21.1,0,32.9,10.6,32.9,32.6c0,22.9-10.1,35.9-32.9,35.9h-23.5V851.7z M306.9,912.5h15.2c6.2,0,23-1.7,23-27c0-16.3-6-26.2-22.8-26.2h-15.4V912.5z"/><path d="M380.1,851.7h9.1v68.5h-9.1V851.7z"/><path d="M470.3,911.7c-5.3,7.2-13.9,10.2-22,10.2c-20.4,0-32.6-16.7-32.6-34.6c0-20,10.9-37.2,32.6-37.2c15,0,26.9,6.7,29.5,22.8h-9.1c-1.8-10.4-10.2-15.1-20.4-15.1c-16.6,0-23.5,14.4-23.5,29.1c0,14.3,8.3,27.4,23.5,27.4c14.1,0,22.6-9.9,22-22.4h-21.9v-7.7h30v36.1h-5.8L470.3,911.7z"/><path d="M506.7,851.7h9.1v68.5h-9.1V851.7z"/><path d="M561.1,859.3h-22.8v-7.7h54.8v7.7h-22.8v60.9h-9.1V859.3z"/><path d="M624.8,851.7h10.1l26.8,68.5h-10.1l-7.5-20.6h-29l-7.7,20.6h-9.4L624.8,851.7z M629.7,859.7L618,891.9h23.2L629.7,859.7z"/><path d="M682.8,851.7h9.1v60.9h36.3v7.7h-45.4V851.7z"/><path d="M571.6,548.2c-11.7-14.6-33-32.8-49.3-30.7c-7.5,1-16.5,22.1-11.8,29.6c3.9,6.3,35.7,25.4,61,82.9c6.9,15.7,73.5,23.1,104.6,11.8c33.9-12.3,30.2-99.4,29.8-127.3c-0.2-13.4-14.9-22-25.8-18.8c1.6-11-24.4-18.4-32.9-12.9c-4.8-11.2-28.6-14.7-35.8-6l0.3-59.3c0.1-17.2-2.4-26.9-22.9-27c-11.5,0.7-16.7,6.7-16.8,27.4L571.6,548.2z"/><path d="M586.9,369.5c-28.2,1.6-35.4,22.8-35.5,46.5l-0.3,88.4c-10.1-5.7-21.3-9.3-32.6-7.8c-16.9,2.2-29.3,23.6-29.7,42c-30.5-2.7-61-12-89.2-28.3C312.7,460.2,273,359.1,297.8,266.7c8.2-30.6-2.5-38.8-14.9-46c-20.2-11.6-25.9-3.4-51.5,6.4c-24.3,9.2-52.4,7.9-76.6-6.1C112,196.2,97.3,141.5,122,98.7l0,0C146.7,56,201.4,41.3,244.2,66c24.3,14,39.5,37.7,43.6,63.3c4.4,27.1,0.1,36.1,20.2,47.8c12.4,7.2,24.9,12.3,47.3-10.1c67.7-67.7,175.1-83.9,262-33.7c104.1,60.1,139.8,193.3,79.7,297.4c-6.9,11.9-14.7,22.8-23.3,32.9c-6.8-2.6-14.2-3.8-21-3.5c-6.6-4.9-14.8-7.8-23.1-8.8l0.1-35.4C629.8,386.9,618.6,369.6,586.9,369.5z M471.7,277.3c18.6,2.5,36.2,8.8,51.9,20.1c16.9,12.2,28.3,28.1,30.7,48.2c3.3,0.2,6.6,0.4,10.1,0.4c12.4,0,24.2-1.8,35.4-5.3c3.7,14.1,21.4,25.5,46.4,10.7c-15.5-9.8-15-19.7-14.4-27.6c16.8-13.5,25.2-29.6,25.2-48.2c0-19.3-9-35.6-27.1-48.7c-17.7-12.9-39.5-19.4-65.3-19.4c-25.8,0-47.7,6.5-65.8,19.5C480.8,240.1,471,257.3,471.7,277.3z M545,354c0-19.3-9.1-35.5-27.1-48.5c-18.1-13-40-19.5-65.8-19.5c-25.8,0-47.6,6.5-65.3,19.4c-18.1,13.1-27.1,29.3-27.1,48.7c0,18.5,8.4,34.6,25.2,48.2c0.6,7.9,1.1,17.8-14.4,27.6c25,14.7,42.7,3.4,46.4-10.7c11.2,3.5,23.1,5.3,35.4,5.3c25.6,0,47.5-6.9,65.6-20.6C536,390,545,373.4,545,354z"/><path d="M55,768.2c0-48.2,30.1-55.1,46.7-55.1s46.6,8.8,46.6,51.7s-26.6,54.8-46.6,54.8C91.2,819.7,55,814.7,55,768.2zM101.7,804.6c12.6,0,29.4-8.6,29.4-39.3c0-30.7-18.9-37.1-29.4-37.1s-29.4,4.9-29.4,39.5C72.2,801,95.1,804.6,101.7,804.6z"/><path d="M176,730.4c12.1-17,28.3-19.1,43.1-16c6.6,1.4,13.8,6.3,18.7,14.4c3.8,6.2,3.8,14.7,3.8,23.5v64.4h-17.1v-63.3c0-9.6,0-20.8-14.3-24.4c-13.6-3.4-34.2,4.9-33.3,32.7v55.1h-17V716.2H176V730.4z"/><path d="M339.2,730.4c12.1-17,28.3-19.1,43.1-16c6.6,1.4,13.8,6.3,18.7,14.4c3.8,6.2,3.8,14.7,3.8,23.5v64.4h-17.1v-63.3c0-9.6,0-20.8-14.3-24.4c-13.6-3.4-34.2,4.9-33.3,32.7v55.1h-17V716.2h16.1V730.4z"/><rect x="257.3" y="678.8" width="17.1" height="137.8"/><path d="M307.4,698.3h-17.1v-19.5h17.1V698.3z M307.4,716.2h-17.1v100.4h17.1V716.2z"/><path d="M433.7,758.7c1.1-39.4,56-42.2,56,0H433.7z M489.2,784.5c-8,24-32.3,22.7-44.2,14.9c-8.8-5.8-11.3-18.5-11.3-26.9H507c2.7-51.8-27.1-56.4-37.3-58.8c-5.9-1.3-37-2.2-49.3,26.4c-11.1,26.1-5.8,64,21.8,75.8c13.8,5.9,53.7,9.6,63.6-31.4H489.2z"/><path d="M610.9,779.2c-5.7,39.4-38.8,44.4-61.8,38.4c-22.5-5.9-31.9-27.2-31.9-50.2c0-20.8,6.4-36.8,17.1-46.1c8.7-7.7,24.7-9.7,29.2-9.8c24-0.5,45.2,11,47.5,39.1h-27.6c-2.7-11.7-7.7-18.7-23.2-15.7c-6,1.2-11.1,6.8-13.5,15.3c-3.5,12.4-2.3,29.7,2.6,38.6c7.1,12.9,32.9,11.4,34-9.4H610.9z"/><path d="M823,779.2c-5.7,39.4-38.8,44.4-61.8,38.4c-22.5-5.9-31.9-27.2-31.9-50.2c0-20.8,6.4-36.8,17.1-46.1c8.7-7.7,24.7-9.7,29.2-9.8c24-0.5,45.2,11,47.5,39.1h-27.6c-2.7-11.7-7.7-18.7-23.2-15.7c-6,1.2-11.1,6.8-13.5,15.3c-3.5,12.4-2.3,29.7,2.6,38.6c7.1,12.9,32.9,11.4,34-9.4H823z"/><path d="M649.7,702.2h-26.6v-24.9h26.6V702.2z M649.7,714.4h-26.6v102.1h26.6V714.4z"/><rect x="835.2" y="678.5" width="26.6" height="138.1"/><path d="M725,739.5c-13-0.8-34.5-1.6-32.7,28.3v48.8h-26.6V714.4h25.6v17.7c0,0,9.8-25,33.7-20V739.5z"/><path d="M901.6,756.1c0-9.7,5.8-19.1,12.7-21.6c13.3-4.7,29.1-0.8,29.1,21.6 M942.3,786.2c-4,16.8-40.5,18.7-41.2-12.5H971c2.6-47.1-19.7-62.3-48.6-62.3c-26.6,0-47.8,17.1-48.1,53.7c-0.6,74.1,89.3,65,95.4,21.1H942.3z"/></svg>
